<?xml version="1.0" encoding="UTF-8" standalone="no"?>
<svg
   xmlns:dc="http://purl.org/dc/elements/1.1/"
   xmlns:cc="http://creativecommons.org/ns#"
   xmlns:rdf="http://www.w3.org/1999/02/22-rdf-syntax-ns#"
   xmlns:svg="http://www.w3.org/2000/svg"
   xmlns="http://www.w3.org/2000/svg"
   xmlns:sodipodi="http://sodipodi.sourceforge.net/DTD/sodipodi-0.dtd"
   xmlns:inkscape="http://www.inkscape.org/namespaces/inkscape"
   version="1.0"
   width="77.970001mm"
   height="14.55mm"
   id="svg4166"
   inkscape:version="0.91 r13725"
   viewBox="0 0 77.970001 14.55"
   sodipodi:docname="logo.svg">
  <metadata
     id="metadata4239">
    <rdf:RDF>
      <cc:Work
         rdf:about="">
        <dc:format>image/svg+xml</dc:format>
        <dc:type
           rdf:resource="http://purl.org/dc/dcmitype/StillImage" />
        <dc:title></dc:title>
      </cc:Work>
    </rdf:RDF>
  </metadata>
  <sodipodi:namedview
     pagecolor="#ffffff"
     bordercolor="#666666"
     borderopacity="1"
     objecttolerance="10"
     gridtolerance="10"
     guidetolerance="10"
     inkscape:pageopacity="0"
     inkscape:pageshadow="2"
     inkscape:window-width="2560"
     inkscape:window-height="1541"
     id="namedview4237"
     inkscape:document-units="mm"
     showgrid="false"
     inkscape:zoom="1.3754578"
     inkscape:cx="138.13583"
     inkscape:cy="25.777559"
     inkscape:window-x="1016"
     inkscape:window-y="-8"
     inkscape:window-maximized="1"
     inkscape:current-layer="svg4166" />
  <defs
     id="defs4168">
    <pattern
       id="EMFhbasepattern"
       patternUnits="userSpaceOnUse"
       width="6"
       height="6"
       x="0"
       y="0" />
  </defs>
  <path
     style="fill:#020204;fill-opacity:1;fill-rule:nonzero;stroke:none"
     d="M -10.922762,-9.2293158 M 56.407473,10.929902 c 0.379871,-0.09734 0.379871,-0.09734 0.379871,-0.09734 0.05814,0.126266 0.100472,0.252532 0.100472,0.378798 0.237348,-0.252532 0.490784,-0.378798 0.759742,-0.378798 0.126718,0 0.253435,0.0263 0.351084,0.09734 0.113454,0.07101 0.197838,0.139418 0.240171,0.239381 0.04233,0.110462 0.05532,0.210425 0.05532,0.307763 0,1.851914 0,1.851914 0,1.851914 -0.379871,0 -0.379871,0 -0.379871,0 0,-1.654612 0,-1.654612 0,-1.654612 0,-0.126266 -0.01326,-0.210453 -0.01326,-0.268337 -0.0158,-0.04208 -0.04205,-0.09731 -0.08438,-0.152569 -0.05814,-0.05786 -0.142522,-0.08416 -0.26924,-0.08416 -0.09765,0 -0.211102,0.0263 -0.33782,0.09731 -0.126436,0.07104 -0.237349,0.139418 -0.321733,0.239381 0,1.822986 0,1.822986 0,1.822986 -0.380154,0 -0.380154,0 -0.380154,0 0,-1.822986 0,-1.822986 0,-1.822986 0,-0.155194 -0.0158,-0.28146 -0.0158,-0.336691 -0.01327,-0.05788 -0.04233,-0.142071 -0.08438,-0.239381 z"
     id="path4171"
     inkscape:connector-curvature="0" />
  <path
     style="fill:#020204;fill-opacity:1;fill-rule:nonzero;stroke:none"
     d="m 55.381031,12.823896 c 0.155505,0.252532 0.155505,0.252532 0.155505,0.252532 -0.226907,0.197302 -0.506589,0.307763 -0.831145,0.307763 -0.33782,0 -0.604238,-0.110461 -0.802358,-0.349842 -0.182033,-0.223605 -0.282222,-0.547173 -0.282222,-0.954899 0,-0.210453 0.0158,-0.378799 0.05814,-0.518217 0.04205,-0.139417 0.1397,-0.29464 0.295487,-0.476137 0.152964,-0.168345 0.379871,-0.268308 0.67564,-0.268308 0.279682,0 0.47752,0.07101 0.617502,0.226229 0.126435,0.139418 0.211102,0.278835 0.253153,0.434029 0.04233,0.139418 0.0714,0.349871 0.0714,0.631332 0,0.05523 0,0.05523 0,0.05523 -1.533313,0 -1.533313,0 -1.533313,0 0,0.05788 0,0.05788 0,0.05788 0,0.126266 0.01326,0.223605 0.02653,0.307764 0.0158,0.09734 0.05785,0.181525 0.100189,0.265712 0.05532,0.07101 0.1397,0.142042 0.253435,0.197273 0.09765,0.04211 0.211103,0.07104 0.337538,0.07104 0.237631,0 0.435469,-0.08419 0.60452,-0.23938 z M 54.05882,11.884773 c 1.124091,0 1.124091,0 1.124091,0 0,-0.126266 -0.01298,-0.239381 -0.02625,-0.32354 -0.0158,-0.08419 -0.05814,-0.181525 -0.126717,-0.281488 -0.07112,-0.09731 -0.197838,-0.152569 -0.40894,-0.152569 -0.169051,0 -0.308751,0.05526 -0.409223,0.194676 -0.09765,0.126267 -0.152964,0.310388 -0.152964,0.562921 z"
     id="path4173"
     inkscape:connector-curvature="0" />
  <path
     style="fill:#020204;fill-opacity:1;fill-rule:nonzero;stroke:none"
     d="m 52.792207,10.985133 c -0.142523,0.28146 -0.142523,0.28146 -0.142523,0.28146 -0.126717,-0.05523 -0.237348,-0.09731 -0.322015,-0.126266 -0.08438,-0.02893 -0.184573,-0.04208 -0.295487,-0.04208 -0.142522,0 -0.253435,0.02893 -0.33782,0.113114 -0.07112,0.06838 -0.113453,0.168346 -0.113453,0.278836 0,0.09996 0.01326,0.168346 0.0714,0.226229 0.04205,0.05523 0.1397,0.11049 0.279682,0.139418 0.324556,0.07104 0.324556,0.07104 0.324556,0.07104 0.435469,0.09731 0.646571,0.320915 0.646571,0.673411 0,0.236756 -0.08467,0.434058 -0.253436,0.573475 -0.168768,0.155194 -0.393135,0.22623 -0.659553,0.22623 -0.33782,0 -0.633589,-0.08419 -0.902547,-0.239381 0.142523,-0.29464 0.142523,-0.29464 0.142523,-0.29464 0.253153,0.155194 0.506589,0.239381 0.773006,0.239381 0.155787,0 0.282505,-0.04208 0.366889,-0.113115 0.08438,-0.08416 0.139982,-0.181497 0.139982,-0.307763 0,-0.210453 -0.139982,-0.352496 -0.409222,-0.407755 -0.308751,-0.05523 -0.308751,-0.05523 -0.308751,-0.05523 -0.197838,-0.05788 -0.350802,-0.142042 -0.464255,-0.252532 -0.09765,-0.126266 -0.155787,-0.268309 -0.155787,-0.420878 0,-0.22623 0.08438,-0.407755 0.253435,-0.547173 0.155505,-0.142042 0.366607,-0.210425 0.620043,-0.210425 0.266417,0 0.519853,0.06838 0.74676,0.194649 z"
     id="path4175"
     inkscape:connector-curvature="0" />
  <path
     style="fill:#020204;fill-opacity:1;fill-rule:nonzero;stroke:none"
     d="m 48.385307,9.8355856 c 0.395957,-0.071035 0.395957,-0.071035 0.395957,-0.071035 0.01298,0.084187 0.02625,0.1683738 0.04205,0.2525328 0,0.07104 0.01326,0.18415 0.01326,0.310416 0,0.560296 0,0.560296 0,0.560296 -0.01326,0.336719 -0.01326,0.336719 -0.01326,0.336719 0.06858,-0.07103 0.182033,-0.155194 0.322015,-0.252532 0.142522,-0.08419 0.311291,-0.139418 0.493325,-0.139418 0.155786,0 0.282504,0.04208 0.393417,0.11049 0.126436,0.07101 0.197838,0.155194 0.226907,0.239381 0.02625,0.08416 0.04205,0.168345 0.04205,0.223576 0,0.04211 0.01326,0.113115 0.01326,0.168374 0,1.754575 0,1.754575 0,1.754575 -0.379872,0 -0.379872,0 -0.379872,0 0,-1.683568 0,-1.683568 0,-1.683568 0,-0.181497 -0.04233,-0.294612 -0.09765,-0.365647 -0.0714,-0.06838 -0.155787,-0.09731 -0.282505,-0.09731 -0.253153,0 -0.493324,0.126266 -0.717691,0.407726 0,1.738799 0,1.738799 0,1.738799 -0.380153,0 -0.380153,0 -0.380153,0 0,-3.001461 0,-3.001461 0,-3.001461 0,-0.18415 -0.02879,-0.3367194 -0.07112,-0.4919134 z"
     id="path4177"
     inkscape:connector-curvature="0" />
  <path
     style="fill:#020204;fill-opacity:1;fill-rule:nonzero;stroke:none"
     d="m 47.68342,11.085096 c -0.211102,0.265684 -0.211102,0.265684 -0.211102,0.265684 -0.08439,-0.07104 -0.169051,-0.126266 -0.226907,-0.155194 -0.06858,-0.0263 -0.139982,-0.04211 -0.237631,-0.04211 -0.08438,0 -0.184573,0.02896 -0.26924,0.08419 -0.08438,0.04208 -0.152964,0.126266 -0.224084,0.252532 -0.0714,0.126266 -0.09765,0.378799 -0.09765,0.744446 0,0.265684 0.04205,0.476137 0.152964,0.631331 0.100189,0.139418 0.253436,0.210453 0.451273,0.210453 0.197838,0 0.379872,-0.08419 0.519854,-0.265684 0.211102,0.252532 0.211102,0.252532 0.211102,0.252532 -0.211102,0.210454 -0.464538,0.320915 -0.74422,0.320915 -0.353624,0 -0.606778,-0.126266 -0.775829,-0.363022 -0.152964,-0.226201 -0.237349,-0.520841 -0.237349,-0.870712 0,-0.252533 0.02625,-0.462957 0.09765,-0.61818 0.05532,-0.168345 0.168769,-0.320915 0.324556,-0.476109 0.152964,-0.155222 0.350802,-0.223604 0.604237,-0.223604 0.139983,0 0.266418,0.01315 0.366889,0.05523 0.08439,0.04211 0.195298,0.113114 0.295487,0.197301 z"
     id="path4179"
     inkscape:connector-curvature="0" />
  <path
     style="fill:#020204;fill-opacity:1;fill-rule:nonzero;stroke:none"
     d="m 43.318853,11.153479 c 0.324556,-0.223577 0.662094,-0.320915 1.013178,-0.320915 0.353625,0 0.564727,0.06838 0.620042,0.223604 0.0714,0.155194 0.09765,0.265684 0.113454,0.307764 0,0.05788 0,0.142042 0,0.252532 0,0.126266 0,0.126266 0,0.126266 -0.01581,0.799705 -0.01581,0.799705 -0.01581,0.799705 0,0.113087 0,0.113087 0,0.113087 0,0.155222 0.01581,0.265712 0.04233,0.336719 0.0158,0.05526 0.07112,0.113115 0.155786,0.155194 -0.19812,0.265712 -0.19812,0.265712 -0.19812,0.265712 -0.182033,-0.04211 -0.279682,-0.168373 -0.33782,-0.349871 -0.211102,0.223605 -0.448451,0.320915 -0.701886,0.320915 -0.142523,0 -0.253154,-0.01315 -0.353625,-0.04208 -0.08438,-0.0263 -0.168769,-0.08419 -0.224084,-0.139418 -0.0714,-0.07103 -0.126718,-0.139418 -0.155787,-0.239381 -0.04233,-0.09734 -0.05532,-0.181497 -0.05532,-0.265684 0,-0.28146 0.113454,-0.491913 0.337538,-0.644482 0.224367,-0.155223 0.548922,-0.239381 0.958145,-0.239381 0.182033,0.01315 0.182033,0.01315 0.182033,0.01315 0,-0.168373 0,-0.168373 0,-0.168373 0,-0.09731 -0.01326,-0.181498 -0.01326,-0.223577 0,-0.05526 -0.04233,-0.126266 -0.100189,-0.197301 -0.0556,-0.06838 -0.153247,-0.09734 -0.295769,-0.09734 -0.08439,0 -0.152965,0.01315 -0.224085,0.02896 -0.08467,0.01315 -0.155786,0.04208 -0.240171,0.06838 -0.08438,0.04208 -0.139982,0.07103 -0.169051,0.08419 -0.04205,0.02893 -0.08438,0.05786 -0.152964,0.113115 z m 1.380067,0.941747 C 44.5008,12.07945 44.5008,12.07945 44.5008,12.07945 c -0.182033,0 -0.337538,0.01578 -0.448451,0.04208 -0.113453,0.04208 -0.197838,0.09996 -0.282505,0.168374 -0.08438,0.08416 -0.113453,0.210425 -0.113453,0.365619 0,0.307791 0.142522,0.449834 0.422205,0.449834 0.126717,0 0.240171,-0.02893 0.353624,-0.09996 0.09765,-0.06838 0.182033,-0.168346 0.237631,-0.278836 z"
     id="path4181"
     inkscape:connector-curvature="0" />
  <path
     style="fill:#020204;fill-opacity:1;fill-rule:nonzero;stroke:none"
     d="m 42.432111,10.985133 c -0.139982,0.28146 -0.139982,0.28146 -0.139982,0.28146 -0.1397,-0.05523 -0.240171,-0.09731 -0.324556,-0.126266 -0.09765,-0.02893 -0.195297,-0.04208 -0.295486,-0.04208 -0.139983,0 -0.253436,0.02893 -0.33782,0.113114 -0.08438,0.06838 -0.126718,0.168346 -0.126718,0.278836 0,0.09996 0.02907,0.168346 0.0714,0.226229 0.05532,0.05523 0.1397,0.11049 0.282222,0.139418 0.322016,0.07104 0.322016,0.07104 0.322016,0.07104 0.438009,0.09731 0.662375,0.320915 0.662375,0.673411 0,0.236756 -0.08438,0.434058 -0.253435,0.573475 -0.182033,0.155194 -0.393136,0.22623 -0.675358,0.22623 -0.324838,0 -0.633307,-0.08419 -0.900007,-0.239381 0.152965,-0.29464 0.152965,-0.29464 0.152965,-0.29464 0.253435,0.155194 0.506871,0.239381 0.775829,0.239381 0.153246,0 0.2667,-0.04208 0.351084,-0.113115 0.09765,-0.08416 0.139982,-0.181497 0.139982,-0.307763 0,-0.210453 -0.126717,-0.352496 -0.4064,-0.407755 -0.295768,-0.05523 -0.295768,-0.05523 -0.295768,-0.05523 -0.211103,-0.05788 -0.366607,-0.142042 -0.464256,-0.252532 -0.100471,-0.126266 -0.155787,-0.268309 -0.155787,-0.420878 0,-0.22623 0.08438,-0.407755 0.240171,-0.547173 0.168769,-0.142042 0.364067,-0.210425 0.633307,-0.210425 0.266418,0 0.506589,0.06838 0.74422,0.194649 z"
     id="path4183"
     inkscape:connector-curvature="0" />
  <path
     style="fill:#020204;fill-opacity:1;fill-rule:nonzero;stroke:none"
     d="m 39.096527,10.929902 c 0.380153,-0.113114 0.380153,-0.113114 0.380153,-0.113114 0.02879,0.07101 0.05786,0.126266 0.07112,0.184121 0,0.04211 0.01326,0.11049 0.01326,0.181526 0,0.04208 0,0.04208 0,0.04208 0.08438,-0.126266 0.197838,-0.223605 0.311292,-0.294612 0.110913,-0.08419 0.237631,-0.113114 0.364066,-0.113114 0.02907,0 0.05814,0 0.08467,0 0.0158,0 0.02879,0.01578 0.05785,0.02893 -0.155504,0.407727 -0.155504,0.407727 -0.155504,0.407727 -0.04233,-0.01578 -0.08467,-0.01578 -0.113453,-0.01578 -0.153247,0 -0.279965,0.04208 -0.364349,0.126266 -0.08438,0.08419 -0.142522,0.155194 -0.155505,0.210453 -0.01326,0.05785 -0.02907,0.126266 -0.02907,0.226229 0,1.528346 0,1.528346 0,1.528346 -0.380153,0 -0.380153,0 -0.380153,0 0,-1.865065 0,-1.865065 0,-1.865065 0,-0.142043 0,-0.252533 -0.01298,-0.310416 -0.01327,-0.06838 -0.04233,-0.139418 -0.0714,-0.223577 z"
     id="path4185"
     inkscape:connector-curvature="0" />
  <path
     style="fill:#020204;fill-opacity:1;fill-rule:nonzero;stroke:none"
     d="m 38.05682,12.823896 c 0.152964,0.252532 0.152964,0.252532 0.152964,0.252532 -0.224084,0.197302 -0.506588,0.307763 -0.828604,0.307763 -0.337538,0 -0.606778,-0.110461 -0.802076,-0.349842 C 36.394249,12.810744 36.2966,12.487176 36.2966,12.07945 c 0,-0.210453 0.01326,-0.378799 0.0556,-0.518217 0.04205,-0.139417 0.142522,-0.29464 0.295486,-0.476137 0.155787,-0.168345 0.379872,-0.268308 0.67564,-0.268308 0.268958,0 0.48006,0.07101 0.620043,0.226229 0.126717,0.139418 0.211102,0.278835 0.253435,0.434029 0.04205,0.139418 0.07112,0.349871 0.07112,0.631332 0,0.05523 0,0.05523 0,0.05523 -1.535853,0 -1.535853,0 -1.535853,0 0,0.05788 0,0.05788 0,0.05788 0,0.126266 0.0158,0.223605 0.02907,0.307764 0.01326,0.09734 0.05532,0.181525 0.09765,0.265712 0.05814,0.07101 0.142522,0.142042 0.253435,0.197273 0.100189,0.04211 0.211102,0.07104 0.337538,0.07104 0.240171,0 0.438291,-0.08419 0.60706,-0.23938 z m -1.324751,-0.939123 c 1.126913,0 1.126913,0 1.126913,0 0,-0.126266 -0.01326,-0.239381 -0.02907,-0.32354 -0.01326,-0.08419 -0.05532,-0.181525 -0.126717,-0.281488 -0.06858,-0.09731 -0.195298,-0.152569 -0.4064,-0.152569 -0.168769,0 -0.311292,0.05526 -0.40894,0.194676 -0.09765,0.126267 -0.155787,0.310388 -0.155787,0.562921 z"
     id="path4187"
     inkscape:connector-curvature="0" />
  <path
     style="fill:#020204;fill-opacity:1;fill-rule:nonzero;stroke:none"
     d="m 35.396876,9.822434 c 0,2.720001 0,2.720001 0,2.720001 0,0.268309 0.01326,0.449806 0.01326,0.520841 0.01298,0.08416 0.02907,0.139418 0.02907,0.168346 0.01298,0.0263 0.02625,0.06841 0.02625,0.09734 -0.379872,0 -0.379872,0 -0.379872,0 -0.02653,-0.04208 -0.04233,-0.08419 -0.04233,-0.113114 -0.01326,-0.0263 -0.01326,-0.06841 -0.02625,-0.139418 -0.01609,0.02893 -0.04233,0.04208 -0.0714,0.08419 -0.04233,0.02893 -0.09765,0.07101 -0.168769,0.126266 -0.0714,0.05523 -0.211102,0.07101 -0.409222,0.07101 -0.308751,0 -0.54864,-0.09996 -0.730955,-0.323539 -0.168769,-0.210453 -0.253154,-0.518245 -0.253154,-0.91282 0,-0.518216 0.113454,-0.868087 0.366607,-1.036433 0.237631,-0.168345 0.448733,-0.252532 0.60452,-0.252532 0.282222,0 0.506589,0.11049 0.662375,0.320915 0,-0.378799 0,-0.378799 0,-0.378799 0,-1.0232813 0,-1.0232813 0,-1.0232813 z m -0.379872,1.583577 c -0.05814,-0.08416 -0.142522,-0.139418 -0.240171,-0.181497 -0.08467,-0.04208 -0.211102,-0.07103 -0.351084,-0.07103 -0.211102,0 -0.353625,0.07103 -0.422205,0.197301 -0.08438,0.139418 -0.142522,0.252533 -0.168768,0.349871 -0.01581,0.113115 -0.02907,0.252533 -0.02907,0.420878 0,0.210453 0.01326,0.378799 0.04205,0.478762 0.01326,0.11049 0.0714,0.194677 0.126718,0.265684 0.0714,0.07104 0.139982,0.113115 0.197837,0.139418 0.0556,0.02896 0.126718,0.02896 0.224367,0.02896 0.09765,0 0.182033,0 0.253436,-0.02896 0.07112,-0.0263 0.1397,-0.05523 0.197837,-0.09731 0.05532,-0.04211 0.09765,-0.08419 0.110914,-0.113114 0.02907,-0.02633 0.04205,-0.06841 0.05814,-0.08419 z"
     id="path4189"
     inkscape:connector-curvature="0" />
  <path
     style="fill:#020204;fill-opacity:1;fill-rule:nonzero;stroke:none"
     d="m 32.383307,12.823896 c 0.155786,0.252532 0.155786,0.252532 0.155786,0.252532 -0.224366,0.197302 -0.506871,0.307763 -0.831426,0.307763 -0.33782,0 -0.604238,-0.110461 -0.802076,-0.349842 -0.182033,-0.223605 -0.279682,-0.547173 -0.279682,-0.954899 0,-0.210453 0.01298,-0.378799 0.05532,-0.518217 0.05532,-0.139417 0.139983,-0.29464 0.295487,-0.476137 0.155787,-0.168345 0.380153,-0.268308 0.67564,-0.268308 0.282222,0 0.47752,0.07101 0.620042,0.226229 0.126718,0.139418 0.224367,0.278835 0.2667,0.434029 0.02879,0.139418 0.05532,0.349871 0.05532,0.631332 0,0.05523 0,0.05523 0,0.05523 -1.533313,0 -1.533313,0 -1.533313,0 0,0.05788 0,0.05788 0,0.05788 0,0.126266 0.01326,0.223605 0.02907,0.307764 0.01326,0.09734 0.0556,0.181525 0.110914,0.265712 0.04233,0.07101 0.126718,0.142042 0.240171,0.197273 0.09765,0.04211 0.224367,0.07104 0.350802,0.07104 0.227189,0 0.422487,-0.08419 0.591256,-0.23938 z m -1.322211,-0.939123 c 1.126913,0 1.126913,0 1.126913,0 0,-0.126266 -0.01581,-0.239381 -0.02907,-0.32354 -0.01326,-0.08419 -0.05532,-0.181525 -0.126718,-0.281488 -0.07112,-0.09731 -0.197838,-0.152569 -0.393135,-0.152569 -0.184574,0 -0.324556,0.05526 -0.422205,0.194676 -0.100189,0.126267 -0.155786,0.310388 -0.155786,0.562921 z"
     id="path4191"
     inkscape:connector-curvature="0" />
  <path
     style="fill:#020204;fill-opacity:1;fill-rule:nonzero;stroke:none"
     d="m 29.528064,9.8355856 c 0.08439,0 0.152965,0.028928 0.211103,0.084187 0.05532,0.055231 0.08438,0.1262666 0.08438,0.2104246 0,0.08419 -0.02907,0.155223 -0.08438,0.223605 -0.05814,0.05788 -0.126718,0.08419 -0.211103,0.08419 -0.08438,0 -0.155786,-0.0263 -0.211102,-0.08419 -0.05814,-0.06838 -0.100189,-0.126266 -0.100189,-0.210453 0,-0.08416 0.02879,-0.1525694 0.08439,-0.2235766 0.05814,-0.055259 0.126718,-0.084187 0.226906,-0.084187 z m -0.211102,1.0653604 c 0.4064,-0.06838 0.4064,-0.06838 0.4064,-0.06838 0,2.496396 0,2.496396 0,2.496396 -0.4064,0 -0.4064,0 -0.4064,0 z"
     id="path4193"
     inkscape:connector-curvature="0" />
  <path
     style="fill:#020204;fill-opacity:1;fill-rule:nonzero;stroke:none"
     d="m 26.023655,9.9907796 c 0.464425,0 0.464425,0 0.464425,0 1.110967,2.1307494 1.110967,2.1307494 1.110967,2.1307494 0.05543,0.09996 0.113482,0.226229 0.18209,0.378799 0.05805,0.142042 0.113453,0.252532 0.142494,0.323568 -0.01583,-0.08419 -0.01583,-0.239381 -0.02904,-0.462986 -0.01318,-0.223605 -0.01318,-0.407726 -0.01318,-0.560296 -0.02904,-1.8098344 -0.02904,-1.8098344 -0.02904,-1.8098344 0.409081,0 0.409081,0 0.409081,0 0,3.3381804 0,3.3381804 0,3.3381804 -0.422261,0 -0.422261,0 -0.422261,0 -1.08458,-2.049215 -1.08458,-2.049215 -1.08458,-2.049215 -0.113453,-0.210425 -0.182061,-0.362994 -0.240143,-0.476109 -0.0554,-0.113115 -0.110828,-0.223605 -0.139841,-0.323568 0.01318,0.22623 0.02901,0.394575 0.02901,0.491914 0.01321,0.09734 0.01321,0.23938 0.01321,0.420878 0.01318,1.9361 0.01318,1.9361 0.01318,1.9361 -0.406371,0 -0.406371,0 -0.406371,0 z"
     id="path4195"
     inkscape:connector-curvature="0" />
  <path
     style="fill:#020204;fill-opacity:1;fill-rule:nonzero;stroke:none"
     d="m 25.234646,10.887795 c -0.126661,0.29464 -0.126661,0.29464 -0.126661,0.29464 -0.506674,0 -0.506674,0 -0.506674,0 0,1.557274 0,1.557274 0,1.557274 0,0.139417 0.02904,0.239381 0.07126,0.29464 0.04222,0.04208 0.126662,0.07101 0.23749,0.07101 0.100274,0 0.184715,-0.01578 0.240143,-0.04208 0.0554,0.236757 0.0554,0.236757 0.0554,0.236757 -0.126661,0.07101 -0.26653,0.09996 -0.422204,0.09996 -0.126661,0 -0.237518,-0.02896 -0.36418,-0.08419 -0.126661,-0.07104 -0.197894,-0.226229 -0.197894,-0.462986 0,-1.670388 0,-1.670388 0,-1.670388 -0.324584,0 -0.324584,0 -0.324584,0 0,-0.29464 0,-0.29464 0,-0.29464 0.324584,0 0.324584,0 0.324584,0 0,-0.02893 0,-0.02893 0,-0.02893 0,-0.11049 0.01318,-0.278836 0.04222,-0.518217 0,-0.05523 0,-0.05523 0,-0.05523 0.409024,-0.08419 0.409024,-0.08419 0.409024,-0.08419 -0.01583,0.08419 -0.02904,0.181497 -0.04222,0.307763 -0.01583,0.113115 -0.01583,0.239381 -0.01583,0.378799 z"
     id="path4197"
     inkscape:connector-curvature="0" />
  <path
     style="fill:#020204;fill-opacity:1;fill-rule:nonzero;stroke:none"
     d="m 23.1948,10.985133 c -0.155702,0.28146 -0.155702,0.28146 -0.155702,0.28146 -0.126661,-0.05523 -0.224282,-0.09731 -0.324555,-0.126266 -0.08447,-0.02893 -0.18209,-0.04208 -0.279739,-0.04208 -0.142494,0 -0.253323,0.02893 -0.337764,0.113114 -0.08444,0.06838 -0.126661,0.168346 -0.126661,0.278836 0,0.09996 0.02639,0.168346 0.06861,0.226229 0.04222,0.05523 0.142494,0.11049 0.282364,0.139418 0.324555,0.07104 0.324555,0.07104 0.324555,0.07104 0.435413,0.09731 0.659723,0.320915 0.659723,0.673411 0,0.236756 -0.09762,0.434058 -0.266531,0.573475 -0.168882,0.155194 -0.393192,0.22623 -0.662347,0.22623 -0.337764,0 -0.633307,-0.08419 -0.899837,-0.239381 0.155673,-0.29464 0.155673,-0.29464 0.155673,-0.29464 0.237519,0.155194 0.506674,0.239381 0.773205,0.239381 0.139841,0 0.266502,-0.04208 0.350971,-0.113115 0.100274,-0.08416 0.142494,-0.181497 0.142494,-0.307763 0,-0.210453 -0.142494,-0.352496 -0.409025,-0.407755 -0.295571,-0.05523 -0.295571,-0.05523 -0.295571,-0.05523 -0.211102,-0.05788 -0.366776,-0.142042 -0.464425,-0.252532 -0.113481,-0.126266 -0.155702,-0.268309 -0.155702,-0.420878 0,-0.22623 0.07126,-0.407755 0.240143,-0.547173 0.155702,-0.142042 0.366804,-0.210425 0.620127,-0.210425 0.279739,0 0.519853,0.06838 0.759996,0.194649 z"
     id="path4199"
     inkscape:connector-curvature="0" />
  <path
     style="fill:#020204;fill-opacity:1;fill-rule:nonzero;stroke:none"
     d="m 19.463456,9.9066209 c 0.211102,0 0.395844,0.042079 0.577906,0.1262661 0.18209,0.08416 0.366804,0.252533 0.535686,0.505065 0.168882,0.252532 0.253351,0.631331 0.253351,1.162699 0,0.336691 -0.04222,0.605028 -0.113482,0.815453 -0.07126,0.210453 -0.211102,0.40513 -0.422204,0.589252 -0.211131,0.194677 -0.477633,0.278835 -0.815425,0.278835 -0.197922,0 -0.379984,-0.0263 -0.535686,-0.09731 -0.155702,-0.08419 -0.337763,-0.223605 -0.535686,-0.449834 -0.18209,-0.223605 -0.27971,-0.615555 -0.27971,-1.204807 0,-0.533992 0.110828,-0.95487 0.350971,-1.262662 0.240115,-0.310388 0.562074,-0.4629571 0.984279,-0.4629571 z m 0,0.3209151 c -0.15305,0 -0.308752,0.04208 -0.435413,0.113114 -0.126661,0.07104 -0.240143,0.181498 -0.324584,0.349871 -0.08444,0.168346 -0.139841,0.462958 -0.139841,0.857561 0,0.252532 0.02901,0.48926 0.07123,0.686562 0.02639,0.210453 0.08444,0.378798 0.153049,0.476137 0.05808,0.113115 0.155702,0.197301 0.295572,0.268309 0.142494,0.06841 0.282363,0.11049 0.422204,0.11049 0.269155,0 0.464453,-0.08419 0.577906,-0.236757 0.126662,-0.155194 0.197923,-0.294611 0.240143,-0.449834 0.04222,-0.155194 0.05543,-0.365647 0.05543,-0.644482 0,-0.478762 -0.04222,-0.815453 -0.12669,-0.996979 -0.09762,-0.181497 -0.197894,-0.323539 -0.324555,-0.407726 -0.12669,-0.08419 -0.279739,-0.126266 -0.464453,-0.126266 z"
     id="path4201"
     inkscape:connector-curvature="0" />
  <path
     style="fill:#e30712;fill-opacity:1;fill-rule:nonzero;stroke:none"
     d="m 74.60488,2.6804818 0.620324,0 0,5.163772 -0.620324,0 0,-5.163772 z m 2.646962,0 0.788811,0 -2.084493,2.4279944 2.068689,2.7357776 -0.786271,0 -1.971322,-2.7357776 1.984586,-2.4279944 z"
     id="path4203"
     inkscape:connector-curvature="0" />
  <path
     style="fill:#e30712;fill-opacity:1;fill-rule:nonzero;stroke:none"
     d="m 70.158469,2.6804818 c 1.211298,0 1.211298,0 1.211298,0 0.322015,0 0.590973,0.028936 0.802075,0.084178 0.195298,0.071024 0.380154,0.1552109 0.548922,0.2946287 0.153247,0.1262662 0.2667,0.2814602 0.351085,0.4629573 0.07112,0.1815254 0.113453,0.3787987 0.113453,0.5761002 0,0.420878 -0.126718,0.7575974 -0.380153,1.0232814 -0.253153,0.2525324 -0.577709,0.3919502 -0.999913,0.3919502 -0.0714,0 -0.0714,0 -0.0714,0 0.100471,0.084187 0.19812,0.1683738 0.282505,0.2683369 0.07112,0.09731 0.168769,0.2104249 0.253153,0.3209149 0.09765,0.1262662 0.253436,0.3656471 0.493607,0.715518 0.224366,0.3366911 0.448451,0.6891866 0.67564,1.025906 -0.775829,0 -0.775829,0 -0.775829,0 -0.06886,-0.18415 -0.237631,-0.4629856 -0.477802,-0.8417842 -0.253154,-0.3787987 -0.47752,-0.7023383 -0.688623,-0.9680223 -0.19812,-0.2683369 -0.33782,-0.4209062 -0.409222,-0.4629855 -0.08438,-0.042079 -0.182033,-0.057884 -0.308751,-0.057884 0,2.3306758 0,2.3306758 0,2.3306758 -0.620042,0 -0.620042,0 -0.620042,0 z m 0.620042,0.5182249 c 0,1.9229211 0,1.9229211 0,1.9229211 0.548922,0 0.548922,0 0.548922,0 0.435469,0 0.74422,-0.084159 0.929076,-0.2525325 0.182033,-0.1683455 0.279682,-0.420878 0.279682,-0.7865251 0,-0.1525693 -0.0556,-0.3209431 -0.139982,-0.4629855 C 72.29856,3.4670153 72.171842,3.3670522 72.016338,3.2986698 71.847287,3.240786 71.636184,3.1987067 71.369767,3.1987067 Z"
     id="path4205"
     inkscape:connector-curvature="0" />
  <path
     style="fill:#e30712;fill-opacity:1;fill-rule:nonzero;stroke:none"
     d="m 66.147527,2.6804818 2.815449,0 -0.07112,0.5182249 -2.124287,0 0,1.6835402 1.773202,0 0,0.5340209 -1.773202,0 0,1.8939933 2.280073,0 0,0.5339927 -2.900115,0 z"
     id="path4207"
     inkscape:connector-curvature="0" />
  <path
     style="fill:#e30712;fill-opacity:1;fill-rule:nonzero;stroke:none"
     d="m 59.27852,2.6804818 c 0.67564,0 0.67564,0 0.67564,0 0.649111,3.0172462 0.649111,3.0172462 0.649111,3.0172462 0.08438,0.3498709 0.1397,0.6734104 0.182033,0.952246 0.04233,0.2814884 0.07112,0.4919133 0.09765,0.6181796 0.02907,-0.2104249 0.07112,-0.4340296 0.113454,-0.6602589 0.04233,-0.2236047 0.09765,-0.5050649 0.182033,-0.8417843 0.67564,-3.0856286 0.67564,-3.0856286 0.67564,-3.0856286 0.704427,0 0.704427,0 0.704427,0 0.717973,3.1987433 0.717973,3.1987433 0.717973,3.1987433 0.07112,0.3235678 0.126436,0.6181796 0.168769,0.870712 0.05532,0.2525325 0.08438,0.4209062 0.09765,0.5182165 0.02907,-0.2104249 0.07112,-0.4077265 0.100189,-0.6023752 0.02653,-0.1973015 0.09765,-0.5208693 0.195297,-0.9969782 0.649112,-2.9883184 0.649112,-2.9883184 0.649112,-2.9883184 0.617502,0 0.617502,0 0.617502,0 -1.182229,5.163772 -1.182229,5.163772 -1.182229,5.163772 -0.81534,0 -0.81534,0 -0.81534,0 C 62.474122,4.98221 62.474122,4.98221 62.474122,4.98221 62.389738,4.6297144 62.334422,4.3351027 62.305353,4.111498 62.26302,3.8878933 62.220969,3.6774684 62.207704,3.5090947 c -0.02907,0.1815253 -0.05814,0.3630224 -0.100471,0.560324 -0.02625,0.2104249 -0.09765,0.4919133 -0.168769,0.8549357 -0.633306,2.9198994 -0.633306,2.9198994 -0.633306,2.9198994 -0.802358,0 -0.802358,0 -0.802358,0 z"
     id="path4209"
     inkscape:connector-curvature="0" />
  <path
     style="fill:#e30712;fill-opacity:1;fill-rule:nonzero;stroke:none"
     d="m 55.832304,2.6094577 c 0.997374,2.0912921 0.997374,2.0912921 0.997374,2.0912921 0.126718,0.2814602 0.240171,0.5471442 0.33782,0.7865251 0.100189,0.2525324 0.168769,0.4761371 0.226906,0.6997418 -0.0158,-0.1683738 -0.02907,-0.4051018 -0.04233,-0.7286696 -0.02907,-0.3235678 -0.02907,-0.560324 -0.02907,-0.7023664 -0.02879,-2.146523 -0.02879,-2.146523 -0.02879,-2.146523 0.999913,0 0.999913,0 0.999913,0 0,5.2347961 0,5.2347961 0,5.2347961 -1.097562,0 -1.097562,0 -1.097562,0 C 56.29656,5.8371458 56.29656,5.8371458 56.29656,5.8371458 56.069653,5.3320809 55.900884,4.9532822 55.803236,4.7007498 55.689782,4.4350658 55.62092,4.2509158 55.592133,4.1246496 c 0.01298,0.1683737 0.02879,0.3945748 0.04205,0.715518 0,0.3104162 0.01327,0.5761002 0.01327,0.7733735 0.02907,2.2307127 0.02907,2.2307127 0.02907,2.2307127 -1.01346,0 -1.01346,0 -1.01346,0 0,-5.2347961 0,-5.2347961 0,-5.2347961 z"
     id="path4211"
     inkscape:connector-curvature="0" />
  <path
     style="fill:#e30712;fill-opacity:1;fill-rule:nonzero;stroke:none"
     d="m 53.452042,2.6094577 -0.139982,0.8575576 -1.786467,0 0,1.2205829 1.49098,0 0,0.8549358 -1.49098,0 0,1.3889284 1.997569,0 0,0.9127914 -3.05308,0 0,-5.2347961 z"
     id="path4213"
     inkscape:connector-curvature="0" />
  <path
     style="fill:#e30712;fill-opacity:1;fill-rule:nonzero;stroke:none"
     d="m 49.680989,2.6094577 -0.182033,0.8838607 -1.253632,0 0,4.3509354 -1.068493,0 0,-4.3509354 -1.2827,0 0,-0.8838607 z"
     id="path4215"
     inkscape:connector-curvature="0" />
  <path
     style="fill:#e30712;fill-opacity:1;fill-rule:nonzero;stroke:none"
     d="m 42.516496,2.6094577 c 1.01346,2.0912921 1.01346,2.0912921 1.01346,2.0912921 0.126435,0.2814602 0.239888,0.5471442 0.337537,0.7865251 0.08467,0.2525324 0.169051,0.4761371 0.226907,0.6997418 -0.0158,-0.1683738 -0.02879,-0.4051018 -0.04205,-0.7286696 -0.02907,-0.3235678 -0.04233,-0.560324 -0.04233,-0.7023664 -0.01581,-2.146523 -0.01581,-2.146523 -0.01581,-2.146523 1.000196,0 1.000196,0 1.000196,0 0,5.2347961 0,5.2347961 0,5.2347961 -1.097845,0 -1.097845,0 -1.097845,0 -0.899724,-2.007108 -0.899724,-2.007108 -0.899724,-2.007108 -0.226907,-0.5050649 -0.395958,-0.8838636 -0.493607,-1.136396 -0.113453,-0.265684 -0.182033,-0.449834 -0.211102,-0.5761002 0.01326,0.1683737 0.02907,0.3945748 0.02907,0.715518 0.01326,0.3104162 0.02653,0.5761002 0.02653,0.7733735 0.02879,2.2307127 0.02879,2.2307127 0.02879,2.2307127 -1.026442,0 -1.026442,0 -1.026442,0 0,-5.2347961 0,-5.2347961 0,-5.2347961 z"
     id="path4217"
     inkscape:connector-curvature="0" />
  <path
     style="fill:#e30712;fill-opacity:1;fill-rule:nonzero;stroke:none"
     d="m 40.152038,2.6094577 -0.1397,0.8575576 -1.786749,0 0,1.2205829 1.49098,0 0,0.8549358 -1.49098,0 0,1.3889284 1.984587,0 0,0.9127914 -3.040098,0 0,-5.2347961 z"
     id="path4219"
     inkscape:connector-curvature="0" />
  <path
     style="fill:#e30712;fill-opacity:1;fill-rule:nonzero;stroke:none"
     d="m 33.270049,2.6094577 c 0.113453,0 0.240171,0.015782 0.395675,0.015782 0.169052,0.013152 0.33782,0.013152 0.519854,0.026306 0.464538,0.028936 0.886742,0.2525212 1.279878,0.6313198 0.380153,0.3946031 0.577991,1.0522374 0.577991,1.9650287 0,0.7286696 -0.126718,1.2758138 -0.380154,1.6283093 -0.253153,0.3367194 -0.493324,0.5734756 -0.717691,0.715518 -0.224366,0.1394178 -0.464538,0.2104531 -0.704426,0.2104531 -0.0556,0 -0.182316,0.013152 -0.364349,0.026303 -0.197838,0 -0.324556,0.015776 -0.379871,0.015776 -1.282418,0 -1.282418,0 -1.282418,0 0,-5.2347961 0,-5.2347961 0,-5.2347961 z m 0.0158,4.3772356 c 0.575169,0 0.575169,0 0.575169,0 0.662376,0 1.000196,-0.5471442 1.000196,-1.6414609 0,-0.3367193 -0.01327,-0.6155548 -0.05532,-0.8549357 -0.02907,-0.2393809 -0.100471,-0.4340296 -0.19812,-0.6024034 -0.08438,-0.155194 -0.197838,-0.2683086 -0.33782,-0.3366911 -0.126435,-0.071035 -0.295486,-0.1131146 -0.493324,-0.1131146 -0.490785,0 -0.490785,0 -0.490785,0 z"
     id="path4221"
     inkscape:connector-curvature="0" />
  <path
     style="fill:#e30712;fill-opacity:1;fill-rule:nonzero;stroke:none"
     d="m 28.147941,2.6094577 c 0,3.4381412 0,3.4381412 0,3.4381412 0,0.3077633 0.04222,0.5471442 0.139757,0.7154898 0.08467,0.1815253 0.311573,0.265684 0.662375,0.265684 0.224367,0 0.409223,-0.042079 0.548923,-0.1525694 0.139982,-0.099963 0.224366,-0.2262293 0.240171,-0.3656471 0.01326,-0.1262662 0.02625,-0.3077633 0.02625,-0.5471442 0,-3.3539543 0,-3.3539543 0,-3.3539543 1.071598,0 1.071598,0 1.071598,0 0,3.5222999 0,3.5222999 0,3.5222999 0,0.1394177 0,0.2814884 0,0.4077546 -0.0158,0.1262662 -0.04233,0.2946118 -0.113453,0.4892605 -0.0714,0.2104531 -0.253436,0.4077546 -0.548922,0.605028 -0.282505,0.1946769 -0.688905,0.3077915 -1.195494,0.3077915 -0.831201,0 -1.337874,-0.1552222 -1.519964,-0.449834 -0.197894,-0.3077633 -0.311376,-0.5182164 -0.337764,-0.6734104 -0.04222,-0.1394178 -0.05805,-0.3367194 -0.05805,-0.560324 0,-3.6485661 0,-3.6485661 0,-3.6485661 z"
     id="path4223"
     inkscape:connector-curvature="0" />
  <path
     style="fill:#e30712;fill-opacity:1;fill-rule:nonzero;stroke:none"
     d="m 26.303365,2.6094577 -0.168882,0.8838607 -1.250809,0 0,4.3509354 -1.071372,0 0,-4.3509354 -1.279849,0 0,-0.8838607 z"
     id="path4225"
     inkscape:connector-curvature="0" />
  <path
     style="fill:#e30712;fill-opacity:1;fill-rule:nonzero;stroke:none"
     d="M 21.350252,3.7326993 C 21.110109,3.5932816 20.899007,3.4933184 20.716917,3.424936 c -0.197922,-0.057884 -0.379984,-0.084187 -0.591114,-0.084187 -0.211102,0 -0.379984,0.055231 -0.519853,0.1683456 -0.142494,0.097338 -0.211103,0.2525324 -0.211103,0.4340577 0,0.1262663 0.04222,0.2393809 0.126662,0.3077634 0.08444,0.084187 0.23749,0.155194 0.464453,0.2104531 0.633306,0.1683455 0.633306,0.1683455 0.633306,0.1683455 0.886658,0.2525325 1.32207,0.7734018 1.32207,1.5573023 0,0.5339926 -0.197894,0.9680222 -0.591086,1.2784384 -0.393192,0.3209149 -0.915698,0.4892887 -1.575421,0.4892887 -0.311375,0 -0.606919,-0.042108 -0.91567,-0.1262662 -0.308751,-0.084187 -0.591114,-0.1946769 -0.873449,-0.3498709 0.395816,-0.8128283 0.395816,-0.8128283 0.395816,-0.8128283 0.279711,0.1394178 0.533062,0.236728 0.744164,0.3077634 0.211102,0.071035 0.438037,0.1131146 0.691388,0.1131146 0.617474,0 0.92885,-0.2393808 0.92885,-0.715518 0,-0.3366911 -0.226935,-0.5629204 -0.69136,-0.6891866 C 19.479288,5.5293824 19.479288,5.5293824 19.479288,5.5293824 19.210133,5.4583471 18.999031,5.3741602 18.830121,5.2610456 18.661239,5.1637353 18.521398,5.0085131 18.407916,4.8138644 c -0.126661,-0.1973015 -0.18209,-0.449834 -0.18209,-0.7444457 0,-0.4761371 0.16891,-0.8549358 0.519854,-1.165352 0.353624,-0.294609 0.802216,-0.4471811 1.35111,-0.4471811 0.324584,0 0.64914,0.042088 0.944711,0.1394177 0.308751,0.084178 0.575254,0.2235962 0.815397,0.3919503 z"
     id="path4227"
     inkscape:connector-curvature="0" />
  <path
     style="fill:#e30712;fill-opacity:1;fill-rule:nonzero;stroke:none"
     d="m 14.31242,2.4147949 c -0.253322,3.1698184 -0.506673,4.6139778 -0.844437,5.9608269 -0.295543,1.2074313 -0.899865,2.3859062 -1.913184,3.3250292 -0.857617,0.799677 -1.8287157,1.333698 -3.0953572,1.699345 -1.08458,0.307763 -2.6467929,0.531368 -3.9266142,0.686562 -1.0555676,0.126266 -1.9290143,0.197301 -2.211372,0.210453 -0.097638,0.08416 -0.097638,0.08416 -0.097638,0.08416 1.0423398,-0.01315 7.4732247,-0.01315 7.5286531,-0.02893 4.2379899,-0.04208 4.6021699,-3.645944 4.6311819,-4.4614256 0.01321,-0.6444826 0.01321,-4.9927933 0.01321,-6.8736351 0,-0.7023467 0,-0.7023467 0,-0.7023467 z"
     id="path4229"
     inkscape:connector-curvature="0" />
  <path
     style="fill:#c00b0b;fill-opacity:1;fill-rule:nonzero;stroke:none"
     d="m 11.610227,11.758507 c 1.013319,-0.954871 1.633446,-2.1465261 1.928989,-3.3539574 0.337792,-1.3757769 0.604322,-2.848864 0.857645,-6.089715 -0.633335,0.310405 -0.633335,0.310405 -0.633335,0.310405 -0.195269,2.930446 -0.519853,4.37723 -0.844437,5.624116 -0.490813,1.8676904 -2.026638,3.7616834 -4.6443899,4.6297704 -0.8866293,0.29464 -2.4330095,0.534021 -3.7286918,0.673439 -0.6465146,0.08416 -1.2376291,0.126266 -1.6756662,0.168346 -0.1266698,0.01578 -0.2375013,0.01578 -0.3377777,0.02893 C 2.223818,14.38117 2.223818,14.38117 2.223818,14.38117 c 0,0 4.0822964,-0.294612 6.2488036,-0.912792 1.2798495,-0.363022 2.2667804,-0.897015 3.1376054,-1.709871 z"
     id="path4231"
     inkscape:connector-curvature="0" />
  <path
     style="fill:#e30712;fill-opacity:1;fill-rule:nonzero;stroke:none"
     d="m 7.8947151,0.56288658 c -1.2376291,0 -2.0530255,0.0131516 -2.6019195,0.0420878 C 3.7437907,0.71545873 2.5906194,1.2494599 1.8728492,2.0491478 0.84369487,3.1987067 0.66161356,4.3219511 0.59036656,5.1347793 c -0.0263906,0.29464 -0.0263906,1.2495107 -0.0263906,2.3990583 0,1.5309991 0.0131967,3.4249924 0.0131967,4.4903534 0,0.05526 0,0.05526 0,0.05526 0.071247,0 0.071247,0 0.071247,0 C 0.95716796,8.951722 1.1392464,7.9415922 1.5192417,6.6368224 2.1525682,4.4613689 3.7306109,2.3858587 6.5726451,1.5730192 8.7391522,0.95483962 12.019252,0.66021656 12.019252,0.66021656 c 0,-0.0710241 0,-0.0710241 0,-0.0710241 -1.731095,-0.0263059 -3.0821773,-0.0263059 -4.1245369,-0.0263059 z"
     id="path4233"
     inkscape:connector-curvature="0" />
  <path
     style="fill:#c00b0b;fill-opacity:1;fill-rule:nonzero;stroke:none"
     d="M 0.66161356,5.1505838 C 0.73286338,4.3351027 0.91494469,3.240786 1.9282664,2.10439 2.6328398,1.3204867 3.7569987,0.78648278 5.2927956,0.6891528 c 1.0133188,-0.071024 2.9687237,-0.071024 6.7132484,-0.0289362 0,0 0.01321,0 0.01321,0 0.282363,-0.602396 0.282363,-0.602396 0.282363,-0.602396 C 12.006044,0.04203728 12.006044,0.04203728 12.006044,0.04203728 10.963712,0.05782056 5.348224,0.07097324 5.2927956,0.07097324 4.1369827,0.08412593 3.2081047,0.33666007 2.4771463,0.74439498 1.3793837,1.3757261 0.75925116,2.3148346 0.4373118,3.1724036 0.11273282,4.0141596 0.05731679,4.7717569 0.04148384,5.1347793 0.02828939,5.808218 0.02828939,10.143349 0.02828939,12.024191 c 0,0.05526 0,0.05526 0,0.05526 0,0.294612 0,0.294612 0,0.294612 0.62013028,-0.294612 0.62013028,-0.294612 0.62013028,-0.294612 0,-0.05526 0,-0.05526 0,-0.05526 0,-1.880842 -0.0422204,-6.2291246 0.0131939,-6.8736072 z"
     id="path4235"
     inkscape:connector-curvature="0" />
</svg>
